<?xml version="1.0" encoding="UTF-8"?>
<!DOCTYPE svg PUBLIC "-//W3C//DTD SVG 1.1//EN" "http://www.w3.org/Graphics/SVG/1.1/DTD/svg11.dtd">
<svg xmlns="http://www.w3.org/2000/svg" version="1.1" width="256px" height="256px" style="shape-rendering:geometricPrecision; text-rendering:geometricPrecision; image-rendering:optimizeQuality; fill-rule:evenodd; clip-rule:evenodd" xmlns:xlink="http://www.w3.org/1999/xlink">
<g><path style="opacity:0.825" fill="#dc9223" d="M 62.5,-0.5 C 105.833,-0.5 149.167,-0.5 192.5,-0.5C 213.036,41.2419 234.036,82.5752 255.5,123.5C 255.5,125.167 255.5,126.833 255.5,128.5C 234.229,169.376 213.229,210.376 192.5,251.5C 149.167,252.833 105.833,252.833 62.5,251.5C 41.7714,210.376 20.7714,169.376 -0.5,128.5C -0.5,126.833 -0.5,125.167 -0.5,123.5C 20.9021,82.7001 41.9021,41.3667 62.5,-0.5 Z"/></g>
<g><path style="opacity:1" fill="#ebeae8" d="M 64.5,3.5 C 106.505,3.16675 148.505,3.50008 190.5,4.5C 210.729,45.1243 231.062,85.6243 251.5,126C 231.097,166.807 210.43,207.474 189.5,248C 148.167,248.667 106.833,248.667 65.5,248C 44.5548,207.442 23.8881,166.776 3.5,126C 24.2048,85.4234 44.5382,44.5901 64.5,3.5 Z"/></g>
<g><path style="opacity:1" fill="#dd962a" d="M 89.5,30.5 C 90.8142,32.9151 91.4809,35.7485 91.5,39C 91.1667,41.8333 90.8333,44.6667 90.5,47.5C 89.5046,41.8722 89.1712,36.2055 89.5,30.5 Z"/></g>
<g><path style="opacity:1" fill="#dc942c" d="M 96.5,30.5 C 97.8142,32.9151 98.4809,35.7485 98.5,39C 98.1667,41.8333 97.8333,44.6667 97.5,47.5C 96.5046,41.8722 96.1712,36.2055 96.5,30.5 Z"/></g>
<g><path style="opacity:1" fill="#dc9222" d="M 103.5,30.5 C 104.814,32.9151 105.481,35.7485 105.5,39C 105.167,41.8333 104.833,44.6667 104.5,47.5C 103.505,41.8722 103.171,36.2055 103.5,30.5 Z"/></g>
<g><path style="opacity:1" fill="#dc9530" d="M 110.5,30.5 C 111.814,32.9151 112.481,35.7485 112.5,39C 112.167,41.8333 111.833,44.6667 111.5,47.5C 110.505,41.8722 110.171,36.2055 110.5,30.5 Z"/></g>
<g><path style="opacity:1" fill="#dc9326" d="M 117.5,30.5 C 118.814,32.9151 119.481,35.7485 119.5,39C 119.167,41.8333 118.833,44.6667 118.5,47.5C 117.505,41.8722 117.171,36.2055 117.5,30.5 Z"/></g>
<g><path style="opacity:1" fill="#dc9423" d="M 124.5,30.5 C 125.814,32.9151 126.481,35.7485 126.5,39C 126.167,41.8333 125.833,44.6667 125.5,47.5C 124.505,41.8722 124.171,36.2055 124.5,30.5 Z"/></g>
<g><path style="opacity:1" fill="#dc9329" d="M 131.5,30.5 C 132.814,32.9151 133.481,35.7485 133.5,39C 133.167,41.8333 132.833,44.6667 132.5,47.5C 131.505,41.8722 131.171,36.2055 131.5,30.5 Z"/></g>
<g><path style="opacity:1" fill="#dc9323" d="M 138.5,30.5 C 139.814,32.9151 140.481,35.7485 140.5,39C 140.167,41.8333 139.833,44.6667 139.5,47.5C 138.505,41.8722 138.171,36.2055 138.5,30.5 Z"/></g>
<g><path style="opacity:1" fill="#dc9328" d="M 145.5,30.5 C 146.814,32.9151 147.481,35.7485 147.5,39C 147.167,41.8333 146.833,44.6667 146.5,47.5C 145.505,41.8722 145.171,36.2055 145.5,30.5 Z"/></g>
<g><path style="opacity:1" fill="#dc9322" d="M 152.5,30.5 C 153.814,32.9151 154.481,35.7485 154.5,39C 154.167,41.8333 153.833,44.6667 153.5,47.5C 152.505,41.8722 152.171,36.2055 152.5,30.5 Z"/></g>
<g><path style="opacity:1" fill="#dc9322" d="M 159.5,30.5 C 160.814,32.9151 161.481,35.7485 161.5,39C 161.167,41.8333 160.833,44.6667 160.5,47.5C 159.505,41.8722 159.171,36.2055 159.5,30.5 Z"/></g>
<g><path style="opacity:1" fill="#dc911d" d="M 87.5,51.5 C 112.502,51.3334 137.502,51.5 162.5,52C 166.974,53.8077 170.141,56.9743 172,61.5C 172.667,90.5 172.667,119.5 172,148.5C 170.167,154.333 166.333,158.167 160.5,160C 136.833,160.667 113.167,160.667 89.5,160C 84.2425,157.744 80.7425,153.91 79,148.5C 78.3333,119.833 78.3333,91.1667 79,62.5C 80.5528,57.7879 83.3862,54.1213 87.5,51.5 Z"/></g>
<g><path style="opacity:1" fill="#f6eadc" d="M 119.5,57.5 C 135.045,56.6892 145.212,63.6892 150,78.5C 152.639,91.1239 149.472,101.957 140.5,111C 120.727,121.203 107.227,115.703 100,94.5C 97.1038,76.9495 103.604,64.6161 119.5,57.5 Z"/></g>
<g><path style="opacity:1" fill="#dc921f" d="M 119.5,61.5 C 136.583,61.4135 145.916,69.9135 147.5,87C 146.082,103.758 137.082,112.091 120.5,112C 107.641,106.463 101.808,96.6298 103,82.5C 104.994,72.6802 110.494,65.6802 119.5,61.5 Z"/></g>
<g><path style="opacity:1" fill="#dc9223" d="M 60.5,65.5 C 65.544,65.1725 70.544,65.5059 75.5,66.5C 73,66.8333 70.5,67.1667 68,67.5C 65.0706,67.4752 62.5706,66.8086 60.5,65.5 Z"/></g>
<g><path style="opacity:1" fill="#dc9220" d="M 175.5,65.5 C 180.544,65.1725 185.544,65.5059 190.5,66.5C 188,66.8333 185.5,67.1667 183,67.5C 180.071,67.4752 177.571,66.8086 175.5,65.5 Z"/></g>
<g><path style="opacity:1" fill="#f7efe5" d="M 122.5,69.5 C 130.149,69.3144 133.315,72.981 132,80.5C 130.448,82.7682 129.615,85.2682 129.5,88C 130.549,93.461 131.216,98.961 131.5,104.5C 127.167,104.5 122.833,104.5 118.5,104.5C 119.166,98.8434 119.832,93.1768 120.5,87.5C 119.565,84.1986 118.565,80.8653 117.5,77.5C 117.672,73.8072 119.339,71.1406 122.5,69.5 Z"/></g>
<g><path style="opacity:1" fill="#dc9220" d="M 60.5,73.5 C 65.544,73.1725 70.544,73.5059 75.5,74.5C 73,74.8333 70.5,75.1667 68,75.5C 65.0706,75.4752 62.5706,74.8086 60.5,73.5 Z"/></g>
<g><path style="opacity:1" fill="#dc921f" d="M 175.5,73.5 C 180.544,73.1725 185.544,73.5059 190.5,74.5C 188,74.8333 185.5,75.1667 183,75.5C 180.071,75.4752 177.571,74.8086 175.5,73.5 Z"/></g>
<g><path style="opacity:1" fill="#dc9223" d="M 60.5,81.5 C 65.544,81.1725 70.544,81.5059 75.5,82.5C 73,82.8333 70.5,83.1667 68,83.5C 65.0706,83.4752 62.5706,82.8086 60.5,81.5 Z"/></g>
<g><path style="opacity:1" fill="#dc9223" d="M 175.5,81.5 C 180.544,81.1725 185.544,81.5059 190.5,82.5C 188,82.8333 185.5,83.1667 183,83.5C 180.071,83.4752 177.571,82.8086 175.5,81.5 Z"/></g>
<g><path style="opacity:1" fill="#dc911e" d="M 60.5,89.5 C 65.544,89.1725 70.544,89.5059 75.5,90.5C 73,90.8333 70.5,91.1667 68,91.5C 65.0706,91.4752 62.5706,90.8086 60.5,89.5 Z"/></g>
<g><path style="opacity:1" fill="#dc9221" d="M 175.5,89.5 C 180.544,89.1725 185.544,89.5059 190.5,90.5C 188,90.8333 185.5,91.1667 183,91.5C 180.071,91.4752 177.571,90.8086 175.5,89.5 Z"/></g>
<g><path style="opacity:1" fill="#dc9221" d="M 60.5,97.5 C 65.544,97.1725 70.544,97.5059 75.5,98.5C 73,98.8333 70.5,99.1667 68,99.5C 65.0706,99.4752 62.5706,98.8086 60.5,97.5 Z"/></g>
<g><path style="opacity:1" fill="#dc9221" d="M 175.5,97.5 C 180.544,97.1725 185.544,97.5059 190.5,98.5C 188,98.8333 185.5,99.1667 183,99.5C 180.071,99.4752 177.571,98.8086 175.5,97.5 Z"/></g>
<g><path style="opacity:1" fill="#dc911f" d="M 60.5,105.5 C 65.544,105.173 70.544,105.506 75.5,106.5C 73,106.833 70.5,107.167 68,107.5C 65.0706,107.475 62.5706,106.809 60.5,105.5 Z"/></g>
<g><path style="opacity:1" fill="#dc911f" d="M 175.5,105.5 C 180.544,105.173 185.544,105.506 190.5,106.5C 188,106.833 185.5,107.167 183,107.5C 180.071,107.475 177.571,106.809 175.5,105.5 Z"/></g>
<g><path style="opacity:1" fill="#dc9223" d="M 60.5,113.5 C 65.544,113.173 70.544,113.506 75.5,114.5C 73,114.833 70.5,115.167 68,115.5C 65.0706,115.475 62.5706,114.809 60.5,113.5 Z"/></g>
<g><path style="opacity:1" fill="#dc9427" d="M 175.5,113.5 C 180.544,113.173 185.544,113.506 190.5,114.5C 188,114.833 185.5,115.167 183,115.5C 180.071,115.475 177.571,114.809 175.5,113.5 Z"/></g>
<g><path style="opacity:1" fill="#fbf8f4" d="M 121.5,128.5 C 132.988,129.495 144.655,129.828 156.5,129.5C 156.5,130.5 156.5,131.5 156.5,132.5C 155.243,134.68 153.743,136.68 152,138.5C 144.025,137.221 136.359,137.221 129,138.5C 126.447,139.194 123.947,140.027 121.5,141C 116.396,149.678 109.396,151.678 100.5,147C 94.07,140.738 92.9033,133.571 97,125.5C 101.842,120.701 107.675,119.201 114.5,121C 117.739,122.736 120.073,125.236 121.5,128.5 Z"/></g>
<g><path style="opacity:1" fill="#dc911f" d="M 60.5,121.5 C 65.544,121.173 70.544,121.506 75.5,122.5C 73,122.833 70.5,123.167 68,123.5C 65.0706,123.475 62.5706,122.809 60.5,121.5 Z"/></g>
<g><path style="opacity:1" fill="#dc921f" d="M 175.5,121.5 C 180.544,121.173 185.544,121.506 190.5,122.5C 188,122.833 185.5,123.167 183,123.5C 180.071,123.475 177.571,122.809 175.5,121.5 Z"/></g>
<g><path style="opacity:1" fill="#efdfc0" d="M 121.5,128.5 C 133.5,128.5 145.5,128.5 157.5,128.5C 157.768,130.099 157.434,131.432 156.5,132.5C 156.5,131.5 156.5,130.5 156.5,129.5C 144.655,129.828 132.988,129.495 121.5,128.5 Z"/></g>
<g><path style="opacity:1" fill="#dc9426" d="M 60.5,129.5 C 65.544,129.173 70.544,129.506 75.5,130.5C 73,130.833 70.5,131.167 68,131.5C 65.0706,131.475 62.5706,130.809 60.5,129.5 Z"/></g>
<g><path style="opacity:1" fill="#dc9427" d="M 175.5,129.5 C 180.544,129.173 185.544,129.506 190.5,130.5C 188,130.833 185.5,131.167 183,131.5C 180.071,131.475 177.571,130.809 175.5,129.5 Z"/></g>
<g><path style="opacity:1" fill="#db9222" d="M 100.5,131.5 C 106.374,132.595 106.874,134.928 102,138.5C 99.3541,136.633 98.8541,134.3 100.5,131.5 Z"/></g>
<g><path style="opacity:1" fill="#dc911d" d="M 60.5,137.5 C 65.544,137.173 70.544,137.506 75.5,138.5C 73,138.833 70.5,139.167 68,139.5C 65.0706,139.475 62.5706,138.809 60.5,137.5 Z"/></g>
<g><path style="opacity:1" fill="#dc921f" d="M 175.5,137.5 C 180.544,137.173 185.544,137.506 190.5,138.5C 188,138.833 185.5,139.167 183,139.5C 180.071,139.475 177.571,138.809 175.5,137.5 Z"/></g>
<g><path style="opacity:1" fill="#dc952e" d="M 60.5,145.5 C 65.544,145.173 70.544,145.506 75.5,146.5C 73,146.833 70.5,147.167 68,147.5C 65.0706,147.475 62.5706,146.809 60.5,145.5 Z"/></g>
<g><path style="opacity:1" fill="#dd952e" d="M 175.5,145.5 C 180.544,145.173 185.544,145.506 190.5,146.5C 188,146.833 185.5,147.167 183,147.5C 180.071,147.475 177.571,146.809 175.5,145.5 Z"/></g>
<g><path style="opacity:1" fill="#dc9423" d="M 89.5,164.5 C 90.8142,166.915 91.4809,169.748 91.5,173C 91.1667,175.833 90.8333,178.667 90.5,181.5C 89.5046,175.872 89.1712,170.206 89.5,164.5 Z"/></g>
<g><path style="opacity:1" fill="#dc9324" d="M 103.5,164.5 C 104.814,166.915 105.481,169.748 105.5,173C 105.167,175.833 104.833,178.667 104.5,181.5C 103.505,175.872 103.171,170.206 103.5,164.5 Z"/></g>
<g><path style="opacity:1" fill="#dc9324" d="M 110.5,164.5 C 111.814,166.915 112.481,169.748 112.5,173C 112.167,175.833 111.833,178.667 111.5,181.5C 110.505,175.872 110.171,170.206 110.5,164.5 Z"/></g>
<g><path style="opacity:1" fill="#dc9328" d="M 117.5,164.5 C 118.814,166.915 119.481,169.748 119.5,173C 119.167,175.833 118.833,178.667 118.5,181.5C 117.505,175.872 117.171,170.206 117.5,164.5 Z"/></g>
<g><path style="opacity:1" fill="#dc9325" d="M 131.5,164.5 C 132.814,166.915 133.481,169.748 133.5,173C 133.167,175.833 132.833,178.667 132.5,181.5C 131.505,175.872 131.171,170.206 131.5,164.5 Z"/></g>
<g><path style="opacity:1" fill="#dd9424" d="M 138.5,164.5 C 139.814,166.915 140.481,169.748 140.5,173C 140.167,175.833 139.833,178.667 139.5,181.5C 138.505,175.872 138.171,170.206 138.5,164.5 Z"/></g>
<g><path style="opacity:1" fill="#dc9222" d="M 145.5,164.5 C 146.814,166.915 147.481,169.748 147.5,173C 147.167,175.833 146.833,178.667 146.5,181.5C 145.505,175.872 145.171,170.206 145.5,164.5 Z"/></g>
<g><path style="opacity:1" fill="#dd9323" d="M 152.5,164.5 C 153.814,166.915 154.481,169.748 154.5,173C 154.167,175.833 153.833,178.667 153.5,181.5C 152.505,175.872 152.171,170.206 152.5,164.5 Z"/></g>
<g><path style="opacity:1" fill="#dc9323" d="M 159.5,164.5 C 160.814,166.915 161.481,169.748 161.5,173C 161.167,175.833 160.833,178.667 160.5,181.5C 159.505,175.872 159.171,170.206 159.5,164.5 Z"/></g>
<g><path style="opacity:1" fill="#dd952d" d="M 96.5,164.5 C 97.8142,166.915 98.4809,169.748 98.5,173C 98.1667,175.833 97.8333,178.667 97.5,181.5C 96.5046,175.872 96.1712,170.206 96.5,164.5 Z"/></g>
<g><path style="opacity:1" fill="#dd9425" d="M 124.5,164.5 C 125.814,166.915 126.481,169.748 126.5,173C 126.167,175.833 125.833,178.667 125.5,181.5C 124.505,175.872 124.171,170.206 124.5,164.5 Z"/></g>
<g><path style="opacity:1" fill="#4a4a4a" d="M 144.5,200.5 C 148.105,199.133 151.771,199.3 155.5,201C 156.788,203.466 156.788,205.966 155.5,208.5C 157.395,210.867 157.895,213.534 157,216.5C 152.847,218.576 148.681,218.91 144.5,217.5C 145.167,217.5 145.5,217.167 145.5,216.5C 148.85,216.665 152.183,216.498 155.5,216C 156.856,213.586 156.522,211.419 154.5,209.5C 154.5,208.833 154.5,208.167 154.5,207.5C 155.752,205.661 155.752,203.828 154.5,202C 151.518,201.502 148.518,201.335 145.5,201.5C 145.5,200.833 145.167,200.5 144.5,200.5 Z"/></g>
<g><path style="opacity:1" fill="#020202" d="M 144.5,200.5 C 145.167,200.5 145.5,200.833 145.5,201.5C 145.5,203.833 145.5,206.167 145.5,208.5C 148.609,208.736 151.609,208.403 154.5,207.5C 154.5,208.167 154.5,208.833 154.5,209.5C 151.5,209.5 148.5,209.5 145.5,209.5C 145.5,211.833 145.5,214.167 145.5,216.5C 145.5,217.167 145.167,217.5 144.5,217.5C 144.5,211.833 144.5,206.167 144.5,200.5 Z"/></g>
<g><path style="opacity:1" fill="#dcdbdb" d="M 145.5,201.5 C 148.518,201.335 151.518,201.502 154.5,202C 155.752,203.828 155.752,205.661 154.5,207.5C 151.609,208.403 148.609,208.736 145.5,208.5C 145.5,206.167 145.5,203.833 145.5,201.5 Z"/></g>
<g><path style="opacity:1" fill="#454545" d="M 63.5,209.5 C 56.1971,208.733 54.8637,205.567 59.5,200C 62.3868,199.277 65.0535,199.777 67.5,201.5C 64.7418,201.381 61.9084,201.715 59,202.5C 58.2783,206.276 59.7783,208.609 63.5,209.5 Z"/></g>
<g><path style="opacity:1" fill="#585858" d="M 114.5,204.5 C 117.516,204.611 118.349,205.611 117,207.5C 116.825,211.211 116.325,214.878 115.5,218.5C 114.507,213.88 114.173,209.214 114.5,204.5 Z"/></g>
<g><path style="opacity:1" fill="#434343" d="M 86.5,215.5 C 83.7804,211.913 84.1137,208.413 87.5,205C 90.6489,203.965 93.3156,204.632 95.5,207C 95.1667,207.167 94.8333,207.333 94.5,207.5C 92.0444,204.92 89.5444,204.92 87,207.5C 86.5026,210.146 86.3359,212.813 86.5,215.5 Z"/></g>
<g><path style="opacity:1" fill="#454545" d="M 125.5,204.5 C 131.144,203.481 134.144,205.814 134.5,211.5C 131.167,211.5 127.833,211.5 124.5,211.5C 124.297,213.39 124.963,214.89 126.5,216C 128.898,216.374 131.231,216.374 133.5,216C 127.483,220.034 123.816,218.368 122.5,211C 122.84,208.489 123.84,206.322 125.5,204.5 Z"/></g>
<g><path style="opacity:1" fill="#dbdbdb" d="M 126.5,205.5 C 130.349,205.019 132.349,206.686 132.5,210.5C 129.833,210.5 127.167,210.5 124.5,210.5C 124.392,208.486 125.058,206.82 126.5,205.5 Z"/></g>
<g><path style="opacity:1" fill="#474646" d="M 191.5,201.5 C 192.404,202.209 192.737,203.209 192.5,204.5C 196.838,204.622 197.172,204.955 193.5,205.5C 193.5,209.167 193.5,212.833 193.5,216.5C 197.588,216.218 198.088,216.885 195,218.5C 193.739,218.241 192.739,217.574 192,216.5C 192.052,212.344 191.219,208.51 189.5,205C 190.973,204.29 191.64,203.124 191.5,201.5 Z"/></g>
<g><path style="opacity:1" fill="#3c3c3c" d="M 78.5,205.5 C 81.2921,206.392 82.6254,208.392 82.5,211.5C 78.351,210.92 74.6843,211.586 71.5,213.5C 69.7528,208.994 71.2528,205.994 76,204.5C 77.0698,204.528 77.9032,204.861 78.5,205.5 Z"/></g>
<g><path style="opacity:1" fill="#dbdbdb" d="M 78.5,205.5 C 79.9418,206.82 80.6085,208.486 80.5,210.5C 77.8333,210.5 75.1667,210.5 72.5,210.5C 72.6509,206.686 74.6509,205.019 78.5,205.5 Z"/></g>
<g><path style="opacity:1" fill="#dfdfdf" d="M 154.5,209.5 C 156.522,211.419 156.856,213.586 155.5,216C 152.183,216.498 148.85,216.665 145.5,216.5C 145.5,214.167 145.5,211.833 145.5,209.5C 148.5,209.5 151.5,209.5 154.5,209.5 Z"/></g>
<g><path style="opacity:1" fill="#494848" d="M 183.5,205.5 C 186.138,206.242 187.471,208.075 187.5,211C 186.641,218.012 183.141,219.846 177,216.5C 174.614,212.206 175.114,208.373 178.5,205C 180.387,204.22 182.054,204.387 183.5,205.5 Z"/></g>
<g><path style="opacity:1" fill="#e0e0e0" d="M 183.5,205.5 C 185.463,208.518 185.963,211.851 185,215.5C 178.373,217.878 175.706,215.545 177,208.5C 178.509,206.081 180.675,205.081 183.5,205.5 Z"/></g>
<g><path style="opacity:1" fill="#949494" d="M 82.5,211.5 C 79.3752,212.479 76.0419,212.813 72.5,212.5C 72.5,213.5 72.5,214.5 72.5,215.5C 71.6618,215.158 71.3284,214.492 71.5,213.5C 74.6843,211.586 78.351,210.92 82.5,211.5 Z"/></g>
<g><path style="opacity:1" fill="#444343" d="M 98.5,204.5 C 100.26,207.701 101.094,211.367 101,215.5C 103.592,216.982 105.925,216.648 108,214.5C 108.333,211.167 108.667,207.833 109,204.5C 109.667,209.167 109.667,213.833 109,218.5C 108.667,217.833 108.333,217.167 108,216.5C 105.253,219.034 102.587,219.034 100,216.5C 98.6463,212.637 98.1463,208.637 98.5,204.5 Z"/></g>
<g><path style="opacity:1" fill="#444444" d="M 163.5,204.5 C 170.825,203.992 173.658,207.326 172,214.5C 168.333,219.833 164.667,219.833 161,214.5C 160.024,210.673 160.857,207.34 163.5,204.5 Z"/></g>
<g><path style="opacity:1" fill="#dcdcdc" d="M 164.5,205.5 C 171.575,206.327 173.242,209.827 169.5,216C 163.556,217.72 161.056,215.553 162,209.5C 162.662,208.016 163.496,206.683 164.5,205.5 Z"/></g>
<g><path style="opacity:1" fill="#454545" d="M 63.5,209.5 C 64.8221,209.33 65.9887,209.663 67,210.5C 68.176,217.194 65.3427,219.694 58.5,218C 57.0403,217.189 56.707,216.355 57.5,215.5C 60.3659,216.795 63.1993,216.795 66,215.5C 66.9661,212.66 66.1328,210.66 63.5,209.5 Z"/></g>
<g><path style="opacity:1" fill="#545454" d="M 72.5,215.5 C 75.5131,216.648 78.5131,216.814 81.5,216C 78.05,219.491 75.05,219.324 72.5,215.5 Z"/></g>
<g><path style="opacity:1" fill="#515151" d="M 86.5,215.5 C 89.5131,216.648 92.5131,216.814 95.5,216C 92.1354,219.454 89.1354,219.287 86.5,215.5 Z"/></g>
</svg>
